<svg width="60" height="60" viewBox="0 0 60 60" fill="none" xmlns="http://www.w3.org/2000/svg">
<path d="M23.789 43.1616C24.0597 42.7112 24.2702 42.3212 24.5108 41.9308C26.4958 38.5092 28.4807 35.1174 30.4958 31.6958C32.0296 29.0544 33.5935 26.4131 35.1273 23.7418C35.1875 23.6217 35.2476 23.5016 35.2476 23.3816C35.2476 21.9409 35.2476 20.5002 35.2476 19.0594C35.2476 18.7893 35.1574 18.7593 34.9168 18.7593C31.3078 18.7593 27.7288 18.7593 24.1198 18.7593C23.8491 18.7593 23.5484 18.7293 23.3078 18.6392C22.5559 18.309 22.3153 17.4086 22.7364 16.6882C23.398 15.5777 24.0898 14.4671 24.7815 13.3566C24.8717 13.2065 24.9018 13.0864 24.7815 12.9064C24.1198 11.8558 23.4882 10.7753 22.8266 9.72475C22.586 9.33455 22.4657 8.91435 22.586 8.46411C22.7364 7.86383 23.2777 7.47363 23.9694 7.47363C25.3529 7.47363 26.7364 7.47363 28.1198 7.47363C30.9469 7.47363 33.774 7.47363 36.601 7.47363C37.3529 7.47363 37.9544 8.04391 37.9845 8.79427C37.9845 9.42459 37.9845 10.0549 37.9845 10.6552C37.9845 14.8573 37.9845 19.0294 37.9845 23.2315C37.9845 23.4416 38.0446 23.6817 38.1649 23.8618C41.864 30.3751 45.5936 36.9184 49.3228 43.4316C50.646 45.7728 51.9696 48.084 53.2928 50.4252C53.7136 51.1756 53.6536 51.866 53.052 52.316C52.8416 52.496 52.5408 52.526 52.27 52.6464C52.18 52.6764 52.0896 52.6464 52.0296 52.6464C37.3529 52.6464 22.6762 52.6464 7.99952 52.6464C7.57848 52.6464 7.18748 52.556 6.88672 52.256C6.37544 51.7756 6.31532 51.0856 6.70628 50.4852C8.24012 48.114 9.80404 45.7428 11.3379 43.3716C13.0221 40.7604 14.7364 38.179 16.4206 35.5677C17.0522 34.6072 18.195 34.6372 18.8266 35.5977C20.4206 38.0289 22.0146 40.49 23.6085 42.9212C23.6386 42.9812 23.6988 43.0416 23.789 43.1616ZM49.834 49.8548C45.4132 42.0808 40.992 34.3971 36.601 26.6532C36.5108 26.7733 36.4506 26.8633 36.4206 26.9534C35.1875 29.0844 33.9544 31.1855 32.7213 33.3165C30.1649 37.6687 27.6386 42.0208 25.0822 46.4032C24.5108 47.3936 23.2777 47.4236 22.6461 46.4632C21.0522 44.002 19.4281 41.5408 17.8341 39.0494C17.774 38.9593 17.6837 38.8693 17.5935 38.7192C15.1875 42.4412 12.7815 46.1328 10.3454 49.8548C23.5183 49.8548 36.6311 49.8548 49.834 49.8548ZM26.3454 10.175C26.4055 10.295 26.4356 10.3551 26.4657 10.4151C26.8566 11.0454 27.2176 11.6757 27.6085 12.306C27.9394 12.8163 27.9394 13.3266 27.6085 13.8668C27.4582 14.107 27.3078 14.3771 27.1574 14.6172C26.8867 15.0674 26.616 15.5176 26.3153 15.9979C26.4657 15.9979 26.5559 16.0279 26.6762 16.0279C29.413 16.0279 32.1499 16.0279 34.8867 16.0279C35.1273 16.0279 35.2176 15.9679 35.2176 15.6978C35.2176 13.9569 35.2176 12.216 35.2176 10.4751C35.2176 10.3851 35.2176 10.265 35.1875 10.175C32.2401 10.175 29.3228 10.175 26.3454 10.175Z" fill="#181828" stroke="#181828"/>
</svg>
