<svg width="60" height="60" viewBox="0 0 60 60" fill="none" xmlns="http://www.w3.org/2000/svg">
<g clip-path="url(#clip0_334_2200)">
<mask id="mask0_334_2200" style="mask-type:alpha" maskUnits="userSpaceOnUse" x="0" y="0" width="60" height="60">
<path d="M60 0H0V60H60V0Z" fill="#D9D9D9"/>
</mask>
<g mask="url(#mask0_334_2200)">
<path d="M26.8752 23.125L23.3752 19.5625L27.9377 15H19.5627C19.1877 16.0833 18.6044 17.0208 17.8127 17.8125C17.0211 18.6042 16.0836 19.1875 15.0002 19.5625V40.4376C16.4586 40.9791 17.6569 41.8851 18.5952 43.155C19.5319 44.4267 20.0002 45.8751 20.0002 47.4999C20.0002 49.5834 19.2711 51.3543 17.8127 52.8126C16.3544 54.2709 14.5836 54.9999 12.5002 54.9999C10.4169 54.9999 8.64608 54.2709 7.18772 52.8126C5.72939 51.3543 5.00024 49.5834 5.00024 47.4999C5.00024 45.8751 5.46857 44.4267 6.40523 43.155C7.34357 41.8851 8.54189 40.9791 10.0002 40.4376V19.5625C8.54189 19.0208 7.34357 18.1142 6.40523 16.8425C5.46857 15.5725 5.00024 14.125 5.00024 12.5C5.00024 10.4167 5.72939 8.64582 7.18772 7.18749C8.64608 5.72916 10.4169 5.00001 12.5002 5.00001C14.1252 5.00001 15.5736 5.46834 16.8452 6.405C18.1152 7.34334 19.0211 8.54166 19.5627 9.99999H27.9377L23.3752 5.4375L26.8752 1.875L37.5003 12.5L26.8752 23.125ZM47.5002 5.00001C49.5837 5.00001 51.3543 5.72916 52.8126 7.18749C54.2712 8.64582 55.0002 10.4167 55.0002 12.5C55.0002 14.5833 54.2712 16.3542 52.8126 17.8125C51.3543 19.2708 49.5837 20 47.5002 20C45.417 20 43.6461 19.2708 42.1878 17.8125C40.7295 16.3542 40.0002 14.5833 40.0002 12.5C40.0002 10.4167 40.7295 8.64582 42.1878 7.18749C43.6461 5.72916 45.417 5.00001 47.5002 5.00001ZM12.5002 50.0001C13.2086 50.0001 13.8027 49.7601 14.2827 49.2801C14.7611 48.8016 15.0002 48.2082 15.0002 47.4999C15.0002 46.7916 14.7611 46.1982 14.2827 45.72C13.8027 45.24 13.2086 45 12.5002 45C11.7919 45 11.1977 45.24 10.7177 45.72C10.2394 46.1982 10.0002 46.7916 10.0002 47.4999C10.0002 48.2082 10.2394 48.8016 10.7177 49.2801C11.1977 49.7601 11.7919 50.0001 12.5002 50.0001ZM12.5002 15C13.2086 15 13.8027 14.7608 14.2827 14.2825C14.7611 13.8025 15.0002 13.2083 15.0002 12.5C15.0002 11.7917 14.7611 11.1975 14.2827 10.7175C13.8027 10.2392 13.2086 9.99999 12.5002 9.99999C11.7919 9.99999 11.1977 10.2392 10.7177 10.7175C10.2394 11.1975 10.0002 11.7917 10.0002 12.5C10.0002 13.2083 10.2394 13.8025 10.7177 14.2825C11.1977 14.7608 11.7919 15 12.5002 15ZM47.5002 15C48.2085 15 48.8019 14.7608 49.2801 14.2825C49.7601 13.8025 50.0001 13.2083 50.0001 12.5C50.0001 11.7917 49.7601 11.1975 49.2801 10.7175C48.8019 10.2392 48.2085 9.99999 47.5002 9.99999C46.7919 9.99999 46.1985 10.2392 45.7203 10.7175C45.2403 11.1975 45.0003 11.7917 45.0003 12.5C45.0003 13.2083 45.2403 13.8025 45.7203 14.2825C46.1985 14.7608 46.7919 15 47.5002 15ZM38.8752 30.5001L42.4377 33.9999L30.0003 46.4376V50.0001H33.5001L46.0002 37.5L49.5627 41.0001L35.6253 54.9999H25.0002V44.3751L38.8752 30.5001ZM49.5627 41.0001L38.8752 30.5001L42.9378 26.4375C43.9377 25.4375 45.1362 24.9375 46.5327 24.9375C47.9277 24.9375 49.1043 25.4375 50.0628 26.4375L53.5626 30C54.5211 30.9582 55.0002 32.1249 55.0002 33.5001C55.0002 34.875 54.5211 36.0417 53.5626 36.9999L49.5627 41.0001Z" fill="#181828"/>
</g>
</g>
<defs>
<clipPath id="clip0_334_2200">
<rect width="60" height="60" fill="white"/>
</clipPath>
</defs>
</svg>
